Coordinates
version=1
nRows=5
nColumns=46
inDegrees=yes

Units are S.I. units (second, meters, Newtons, ...)
Angles are in degrees.

endheader
time	pelvis_tilt	pelvis_list	pelvis_rotation	pelvis_tx	pelvis_ty	pelvis_tz	bb_angle	bb_tx	bb_ty	bb_tz	hip_flexion_r	hip_adduction_r	hip_rotation_r	knee_angle_r	knee_angle_r_beta	ankle_angle_r	subtalar_angle_r	mtp_angle_r	crank_angle_r	hip_flexion_l	hip_adduction_l	hip_rotation_l	knee_angle_l	knee_angle_l_beta	ankle_angle_l	subtalar_angle_l	mtp_angle_l	crank_angle_l	lumbar_extension	lumbar_bending	lumbar_rotation	arm_flex_r	arm_add_r	arm_rot_r	elbow_flex_r	pro_sup_r	wrist_flex_r	wrist_dev_r	arm_flex_l	arm_add_l	arm_rot_l	elbow_flex_l	pro_sup_l	wrist_flex_l	wrist_dev_l
      7.50000000	    -11.27387998	     10.96090023	      7.63523618	      0.18491760	      1.04348953	     -0.20830146	      0.00000000	      0.50000000	      0.00000000	      0.25000000	     37.34756657	    -14.06357505	      5.50762142	     36.01454370	      0.62857237	     -1.95234236	     -6.23900090	      0.00000000	      0.00000000	     77.59855023	      1.79743001	      1.94262150	    116.63127941	      2.03559984	      8.91703592	      6.46504859	      0.00000000	      0.00000000	    -70.13603751	     -5.91751075	    -12.94075080	     79.11616992	    -30.88955078	     24.67769607	     77.53661188	     40.26894000	      0.00000000	      0.00000000	     86.77220197	    -16.23005721	     21.49805149	     73.65729541	     47.02507927	      0.00000000	      0.00000000
      7.50500000	    -11.60253903	     11.25733688	      8.66711642	      0.18471326	      1.04402700	     -0.20812041	      0.00000000	      0.50000000	      0.00000000	      0.25000000	     36.99622270	    -14.79739284	      5.16099604	     36.39630202	      0.63523531	     -2.79902033	     -6.46699433	      0.00000000	      0.00000000	     79.11933028	      2.40853352	      1.74046665	    116.52289564	      2.03370818	      8.74775082	      6.97716598	      0.00000000	      0.00000000	    -70.15547423	     -5.62458680	    -13.48386142	     79.09606687	    -31.06180573	     24.44778596	     77.40175347	     40.27694700	      0.00000000	      0.00000000	     87.16980019	    -15.86376640	     21.79576198	     73.72289303	     47.04516319	      0.00000000	      0.00000000
      7.51000000	    -12.09032664	     11.57584750	      9.74747826	      0.18462288	      1.04461994	     -0.20796003	      0.00000000	      0.50000000	      0.00000000	      0.25000000	     36.88077864	    -15.57329070	      4.67661579	     36.90553629	      0.64412312	     -3.83208982	     -7.35162591	      0.00000000	      0.00000000	     80.62798858	      3.01503092	      1.37637557	    116.19204656	      2.02793378	      8.80433492	      7.71185396	      0.00000000	      0.00000000	    -69.94862466	     -5.54511257	    -13.78142943	     78.01248035	    -31.31480898	     22.70440589	     77.46104120	     40.54241082	      0.00000000	      0.00000000	     87.73604656	    -15.36442086	     23.42103834	     72.87705704	     46.91423681	      0.00000000	      0.00000000
      7.51500000	    -12.58214776	     11.78858627	     10.75499957	      0.18437344	      1.04534247	     -0.20777230	      0.00000000	      0.50000000	      0.00000000	      0.25000000	     36.90143359	    -16.19304218	      4.35122664	     37.62735778	      0.65672128	     -4.91718942	     -8.01736612	      0.00000000	      0.00000000	     82.02639768	      3.53963697	      1.05084240	    115.66076667	      2.01866119	      8.77245894	      8.25424483	      0.00000000	      0.00000000	    -69.84399893	     -5.43014227	    -13.89787227	     76.70941944	    -31.67195498	     20.42894266	     78.12668578	     41.17748177	      0.00000000	      0.00000000	     88.22189898	    -14.46867319	     24.18119282	     72.30143144	     46.55825361	      0.00000000	      0.00000000
      7.52000000	    -12.92460663	     11.90768976	     11.63672287	      0.18416139	      1.04612065	     -0.20793275	      0.00000000	      0.50000000	      0.00000000	      0.25000000	     36.90692778	    -16.70529949	      3.95879002	     38.57358047	      0.67323598	     -5.87829575	     -8.46585589	      0.00000000	      0.00000000	     83.15423700	      4.06186781	      0.78050876	    115.07261513	      2.00839601	      8.91534355	      8.72062550	      0.00000000	      0.00000000	    -69.80504086	     -5.12521367	    -14.17901956	     76.45133005	    -32.01139921	     20.02936939	     77.96718463	     41.24406004	      0.00000000	      0.00000000	     88.42348957	    -14.10213054	     24.35088864	     72.34842535	     46.50875861	      0.00000000	      0.00000000
